<svg width="45" height="45" viewBox="0 0 45 45" fill="none" xmlns="http://www.w3.org/2000/svg">
<g clip-path="url(#clip0_36_60)">
<path d="M39 0H6C2.68629 0 0 2.68629 0 6V39C0 42.3137 2.68629 45 6 45H39C42.3137 45 45 42.3137 45 39V6C45 2.68629 42.3137 0 39 0Z" fill="black"/>
<path d="M36 8H8C7.44772 8 7 8.44772 7 9V11.2594C7 11.8117 7.44772 12.2594 8 12.2594H36C36.5523 12.2594 37 11.8117 37 11.2594V9C37 8.44772 36.5523 8 36 8Z" fill="white"/>
<path d="M36 8H8C7.44772 8 7 8.44772 7 9V11.2594C7 11.8117 7.44772 12.2594 8 12.2594H36C36.5523 12.2594 37 11.8117 37 11.2594V9C37 8.44772 36.5523 8 36 8Z" fill="#FF5277"/>
<path d="M36 8H8C7.44772 8 7 8.44772 7 9V11.2594C7 11.8117 7.44772 12.2594 8 12.2594H36C36.5523 12.2594 37 11.8117 37 11.2594V9C37 8.44772 36.5523 8 36 8Z" fill="#1AA1DB"/>
<path d="M36 20.2593H8C7.44772 20.2593 7 20.707 7 21.2593V23.5186C7 24.0709 7.44772 24.5186 8 24.5186H36C36.5523 24.5186 37 24.0709 37 23.5186V21.2593C37 20.707 36.5523 20.2593 36 20.2593Z" fill="white"/>
<path d="M36 20.2593H8C7.44772 20.2593 7 20.707 7 21.2593V23.5186C7 24.0709 7.44772 24.5186 8 24.5186H36C36.5523 24.5186 37 24.0709 37 23.5186V21.2593C37 20.707 36.5523 20.2593 36 20.2593Z" fill="#FF5277"/>
<path d="M36 20.2593H8C7.44772 20.2593 7 20.707 7 21.2593V23.5186C7 24.0709 7.44772 24.5186 8 24.5186H36C36.5523 24.5186 37 24.0709 37 23.5186V21.2593C37 20.707 36.5523 20.2593 36 20.2593Z" fill="#1AA1DB"/>
<path d="M36 32.5186H8C7.44772 32.5186 7 32.9663 7 33.5186V35.7779C7 36.3302 7.44772 36.7779 8 36.7779H36C36.5523 36.7779 37 36.3302 37 35.7779V33.5186C37 32.9663 36.5523 32.5186 36 32.5186Z" fill="white"/>
<path d="M36 32.5186H8C7.44772 32.5186 7 32.9663 7 33.5186V35.7779C7 36.3302 7.44772 36.7779 8 36.7779H36C36.5523 36.7779 37 36.3302 37 35.7779V33.5186C37 32.9663 36.5523 32.5186 36 32.5186Z" fill="#FF5277"/>
<path d="M36 32.5186H8C7.44772 32.5186 7 32.9663 7 33.5186V35.7779C7 36.3302 7.44772 36.7779 8 36.7779H36C36.5523 36.7779 37 36.3302 37 35.7779V33.5186C37 32.9663 36.5523 32.5186 36 32.5186Z" fill="#1AA1DB"/>
</g>
<defs>
<clipPath id="clip0_36_60">
<rect width="45" height="45" fill="white"/>
</clipPath>
</defs>
</svg>
